<svg width="1536" height="1024" viewBox="0 0 1536 1024" xmlns="http://www.w3.org/2000/svg">
  <defs>
    <linearGradient id="bg2" x1="0" y1="0" x2="1" y2="1">
      <stop offset="0%" stop-color="#EDF5F2"/>
      <stop offset="100%" stop-color="#D7E8E1"/>
    </linearGradient>
  </defs>

  <rect width="1536" height="1024" fill="url(#bg2)"/>
  <rect x="96" y="96" width="1344" height="832" rx="34" fill="#FFFFFF" stroke="#CFDFD8" stroke-width="4"/>

  <rect x="150" y="152" width="1240" height="94" rx="18" fill="#F6FBF9"/>
  <rect x="188" y="188" width="300" height="16" rx="8" fill="#254F57"/>
  <rect x="520" y="188" width="210" height="12" rx="6" fill="#78989D"/>

  <rect x="150" y="276" width="290" height="162" rx="20" fill="#F7FCFA" stroke="#D8E7E1" stroke-width="2"/>
  <rect x="470" y="276" width="290" height="162" rx="20" fill="#F7FCFA" stroke="#D8E7E1" stroke-width="2"/>
  <rect x="790" y="276" width="290" height="162" rx="20" fill="#F7FCFA" stroke="#D8E7E1" stroke-width="2"/>
  <rect x="1110" y="276" width="280" height="162" rx="20" fill="#EAF4F0" stroke="#CFE0D9" stroke-width="2"/>

  <rect x="182" y="312" width="140" height="12" rx="6" fill="#7A9AA0"/>
  <rect x="502" y="312" width="140" height="12" rx="6" fill="#7A9AA0"/>
  <rect x="822" y="312" width="140" height="12" rx="6" fill="#7A9AA0"/>
  <rect x="1144" y="312" width="120" height="12" rx="6" fill="#2A5962"/>

  <rect x="182" y="342" width="200" height="30" rx="15" fill="#1F6B73"/>
  <rect x="502" y="342" width="200" height="30" rx="15" fill="#1F6B73"/>
  <rect x="822" y="342" width="200" height="30" rx="15" fill="#1F6B73"/>
  <rect x="1144" y="342" width="200" height="30" rx="15" fill="#2A5962"/>

  <rect x="150" y="468" width="820" height="412" rx="24" fill="#F8FCFA" stroke="#D8E7E1" stroke-width="2"/>
  <rect x="1010" y="468" width="380" height="412" rx="24" fill="#F8FCFA" stroke="#D8E7E1" stroke-width="2"/>

  <rect x="190" y="514" width="240" height="16" rx="8" fill="#234D55"/>
  <rect x="1050" y="514" width="180" height="16" rx="8" fill="#234D55"/>

  <line x1="220" y1="820" x2="920" y2="820" stroke="#CADCD5" stroke-width="2"/>
  <line x1="220" y1="780" x2="920" y2="780" stroke="#DCE9E4" stroke-width="2"/>
  <line x1="220" y1="740" x2="920" y2="740" stroke="#DCE9E4" stroke-width="2"/>
  <line x1="220" y1="700" x2="920" y2="700" stroke="#DCE9E4" stroke-width="2"/>
  <polyline points="230,790 360,730 500,748 640,662 780,690 900,620" fill="none" stroke="#1F6B73" stroke-width="7" stroke-linecap="round" stroke-linejoin="round"/>
  <circle cx="360" cy="730" r="7" fill="#1F6B73"/>
  <circle cx="640" cy="662" r="7" fill="#1F6B73"/>
  <circle cx="900" cy="620" r="7" fill="#1F6B73"/>

  <rect x="1050" y="556" width="300" height="106" rx="16" fill="#EAF4F0"/>
  <rect x="1050" y="684" width="300" height="86" rx="16" fill="#EAF4F0"/>
  <rect x="1080" y="590" width="200" height="12" rx="6" fill="#2A5962"/>
  <rect x="1080" y="616" width="150" height="10" rx="5" fill="#78989D"/>
  <rect x="1080" y="714" width="160" height="12" rx="6" fill="#2A5962"/>
  <rect x="1080" y="738" width="210" height="10" rx="5" fill="#78989D"/>

  <circle cx="1240" cy="378" r="40" fill="#D2E6DF"/>
  <circle cx="1240" cy="356" r="14" fill="#5E7E84"/>
  <rect x="1214" y="374" width="52" height="34" rx="17" fill="#5E7E84"/>
</svg>
