<svg width="1536" height="1024" viewBox="0 0 1536 1024" xmlns="http://www.w3.org/2000/svg">
  <defs>
    <linearGradient id="bg3" x1="0" y1="0" x2="1" y2="1">
      <stop offset="0%" stop-color="#EEF6F3"/>
      <stop offset="100%" stop-color="#D8E9E2"/>
    </linearGradient>
  </defs>

  <rect width="1536" height="1024" fill="url(#bg3)"/>
  <rect x="106" y="108" width="1324" height="808" rx="34" fill="#FFFFFF" stroke="#CFDFD8" stroke-width="4"/>

  <rect x="170" y="172" width="1196" height="90" rx="18" fill="#F7FCFA"/>
  <rect x="206" y="206" width="330" height="16" rx="8" fill="#254F57"/>
  <rect x="568" y="206" width="200" height="12" rx="6" fill="#78989D"/>

  <rect x="170" y="292" width="500" height="564" rx="24" fill="#F8FCFA" stroke="#D8E7E1" stroke-width="2"/>
  <rect x="700" y="292" width="310" height="270" rx="24" fill="#F8FCFA" stroke="#D8E7E1" stroke-width="2"/>
  <rect x="1036" y="292" width="330" height="270" rx="24" fill="#F8FCFA" stroke="#D8E7E1" stroke-width="2"/>
  <rect x="700" y="586" width="666" height="270" rx="24" fill="#F8FCFA" stroke="#D8E7E1" stroke-width="2"/>

  <rect x="210" y="336" width="180" height="14" rx="7" fill="#254F57"/>
  <rect x="210" y="364" width="290" height="10" rx="5" fill="#78989D"/>
  <rect x="210" y="386" width="250" height="10" rx="5" fill="#78989D"/>

  <rect x="210" y="426" width="420" height="120" rx="18" fill="#EAF4F0"/>
  <rect x="230" y="454" width="180" height="12" rx="6" fill="#2A5962"/>
  <rect x="230" y="478" width="240" height="10" rx="5" fill="#7A9AA0"/>
  <rect x="230" y="502" width="160" height="10" rx="5" fill="#7A9AA0"/>
  <rect x="468" y="452" width="140" height="32" rx="16" fill="#1F6B73"/>

  <rect x="210" y="570" width="420" height="120" rx="18" fill="#EAF4F0"/>
  <rect x="230" y="598" width="180" height="12" rx="6" fill="#2A5962"/>
  <rect x="230" y="622" width="220" height="10" rx="5" fill="#7A9AA0"/>
  <rect x="230" y="646" width="180" height="10" rx="5" fill="#7A9AA0"/>
  <rect x="468" y="596" width="140" height="32" rx="16" fill="#1F6B73"/>

  <rect x="210" y="714" width="420" height="120" rx="18" fill="#EAF4F0"/>
  <rect x="230" y="742" width="180" height="12" rx="6" fill="#2A5962"/>
  <rect x="230" y="766" width="260" height="10" rx="5" fill="#7A9AA0"/>
  <rect x="230" y="790" width="160" height="10" rx="5" fill="#7A9AA0"/>
  <rect x="468" y="740" width="140" height="32" rx="16" fill="#1F6B73"/>

  <rect x="738" y="332" width="210" height="12" rx="6" fill="#254F57"/>
  <rect x="738" y="358" width="180" height="10" rx="5" fill="#7A9AA0"/>
  <rect x="738" y="390" width="232" height="130" rx="16" fill="#EAF4F0"/>
  <rect x="760" y="422" width="140" height="10" rx="5" fill="#2A5962"/>
  <rect x="760" y="444" width="180" height="9" rx="4.5" fill="#7A9AA0"/>
  <rect x="760" y="466" width="120" height="9" rx="4.5" fill="#7A9AA0"/>

  <rect x="1074" y="332" width="210" height="12" rx="6" fill="#254F57"/>
  <rect x="1074" y="358" width="180" height="10" rx="5" fill="#7A9AA0"/>
  <rect x="1074" y="390" width="252" height="130" rx="16" fill="#EAF4F0"/>
  <rect x="1098" y="422" width="160" height="10" rx="5" fill="#2A5962"/>
  <rect x="1098" y="444" width="200" height="9" rx="4.5" fill="#7A9AA0"/>
  <rect x="1098" y="466" width="150" height="9" rx="4.5" fill="#7A9AA0"/>

  <rect x="738" y="624" width="250" height="12" rx="6" fill="#254F57"/>
  <rect x="738" y="650" width="220" height="10" rx="5" fill="#7A9AA0"/>
  <rect x="738" y="684" width="590" height="138" rx="18" fill="#EAF4F0"/>
  <rect x="768" y="718" width="240" height="12" rx="6" fill="#2A5962"/>
  <rect x="768" y="744" width="320" height="10" rx="5" fill="#7A9AA0"/>
  <rect x="768" y="768" width="260" height="10" rx="5" fill="#7A9AA0"/>
  <rect x="1150" y="714" width="150" height="34" rx="17" fill="#1F6B73"/>

  <circle cx="926" cy="528" r="18" fill="#1F6B73"/>
  <circle cx="1210" cy="528" r="18" fill="#1F6B73"/>
  <path d="M944 528h248" stroke="#1F6B73" stroke-width="6" stroke-linecap="round"/>

  <circle cx="1272" cy="884" r="46" fill="#D2E6DF"/>
  <circle cx="1272" cy="858" r="16" fill="#5E7E84"/>
  <rect x="1242" y="880" width="60" height="38" rx="19" fill="#5E7E84"/>
</svg>
